<svg xmlns="http://www.w3.org/2000/svg" xmlns:xlink="http://www.w3.org/1999/xlink" viewBox="0 0 823.72 376.1"><defs><style>.cls-1,.cls-12,.cls-13,.cls-5,.cls-8{fill:none;}.cls-2{isolation:isolate;}.cls-3{fill:#5f8586;}.cls-17,.cls-4{fill:#72edc9;}.cls-5,.cls-8{stroke:#5f8586;}.cls-5{stroke-width:2.8px;}.cls-6{clip-path:url(#clip-path);}.cls-11,.cls-21,.cls-7{fill:#452743;}.cls-7{opacity:0.25;}.cls-8{stroke-miterlimit:10;stroke-width:1.24px;}.cls-9{fill:#d4cadc;}.cls-10{fill:#ee7963;}.cls-12,.cls-13{stroke:#452743;stroke-linejoin:round;}.cls-12{stroke-width:1.79px;}.cls-13{stroke-width:3.11px;}.cls-14,.cls-16,.cls-19,.cls-21{opacity:0.5;}.cls-14,.cls-16{mix-blend-mode:screen;}.cls-15{fill:url(#radial-gradient);}.cls-16{fill:url(#radial-gradient-2);}.cls-17{font-size:72px;font-family:Nobel-Regular, Nobel;}.cls-18{letter-spacing:-0.02em;}.cls-19{mix-blend-mode:multiply;}.cls-20{clip-path:url(#clip-path-2);}</style><clipPath id="clip-path"><path class="cls-1" d="M266.06,289.35c3.72-4.61,11-.92,9.76,4.87-8.62,39.08-46.84,64.22-87.44,72.62C114.92,382,35.94,340.43,17.66,252,.55,169.25,52,97.92,129.47,81.91c34-7,79.92-.21,104.24,30.36a5.61,5.61,0,0,1-6.82,8.57c-15.18-7.24-30.55-8.48-48.1-4.85-46.85,9.68-76.1,58.33-64.09,116.42,12.83,62.07,55.4,93.93,106.13,83.44,20.61-4.26,34.67-13.45,45.23-26.5"/></clipPath><radialGradient id="radial-gradient" cx="44.8" cy="53.92" r="247.86" gradientUnits="userSpaceOnUse"><stop offset="0" stop-color="#ee7963"/><stop offset="0.07" stop-color="#ee7963" stop-opacity="0.86"/><stop offset="0.21" stop-color="#ee7963" stop-opacity="0.64"/><stop offset="0.35" stop-color="#ee7963" stop-opacity="0.44"/><stop offset="0.48" stop-color="#ee7963" stop-opacity="0.28"/><stop offset="0.62" stop-color="#ee7963" stop-opacity="0.16"/><stop offset="0.75" stop-color="#ee7963" stop-opacity="0.07"/><stop offset="0.88" stop-color="#ee7963" stop-opacity="0.02"/><stop offset="1" stop-color="#ee7963" stop-opacity="0"/></radialGradient><radialGradient id="radial-gradient-2" cx="115.06" cy="25.3" r="247.86" xlink:href="#radial-gradient"/><clipPath id="clip-path-2"><path class="cls-1" d="M245.57,257.44V130.58a16.33,16.33,0,0,1,16.34-16.34H276V243.81a13.62,13.62,0,0,1-13.62,13.63Zm92.58,2.35c-24.72,0-47.47-13.14-47.47-45.31,0-28.25,18.83-43.95,42.57-43.95,26.87,0,45.11,19,45.11,49.83H319.12c1,9.81,7.07,17.85,19,17.85,13.14,0,21-2.94,28.25-9l3.41,5.49A13.68,13.68,0,0,1,364.45,254C356.43,258.21,348.38,259.79,338.15,259.79Zm-5.3-69.64c-8.63,0-12,6.08-13.53,14.13h27.85C346.39,195.64,340.9,190.15,332.85,190.15Zm170.27,67.29V213.89c0-11.38-1.77-17.85-11-17.85-9.61,0-12.95,7.06-12.95,16.87v44.53h-30.4V213.89c0-11.38-1.77-17.85-11-17.85-9.61,0-12.94,7.06-12.94,16.87v44.53H394.44V190.77a17.88,17.88,0,0,1,17.88-17.88h12.53v8.83c5.69-8.24,13.34-11.19,23.34-11.19,13.34,0,21,5.5,25.89,13.93,5.89-7.65,14.32-13.93,28.45-13.93,22.75,0,31,15.89,31,36.1v32.93a17.88,17.88,0,0,1-17.88,17.88Zm80.21,2.35a84.71,84.71,0,0,1-14.86-1.32,17.88,17.88,0,0,1-12.72-25.73l.91-1.79c6.86,4.12,14.12,7.26,22.16,7.26,6.48,0,9.81-2,9.81-4.71,0-4.51-5.3-6.67-12-9-11.37-4.32-26.87-9.42-26.87-28,0-16.87,14.52-25.9,35.31-25.9a78.5,78.5,0,0,1,8.42.42,17.86,17.86,0,0,1,14.22,25.22l-.47,1a44.08,44.08,0,0,0-21.58-5.49c-4.71,0-9.22.79-9.22,4.51,0,3,6.86,5.1,15.1,8.24C603.93,209,619,216.24,619,232.91,619,252.34,601.77,259.79,583.33,259.79Zm207.72-2.35V213.89c0-11.38-2.74-17.85-12-17.85-8.83,0-13.93,6.47-13.93,16.87v44.53H734.75V190.77a17.88,17.88,0,0,1,17.88-17.88h12.53v8.83c5.49-7.46,14.32-11.19,24.33-11.19,22.75,0,32,15.89,32,36.1v32.93a17.89,17.89,0,0,1-17.88,17.88ZM674.34,170.53c-24.32,0-45.5,19.43-45.5,44.53,0,25.7,20.79,44.73,45.7,44.73,24.33,0,45.51-19.81,45.51-44.92C720.05,189.17,699.06,170.53,674.34,170.53Zm12.85,48.74a33.29,33.29,0,0,0-.55,19.41,33.27,33.27,0,0,0-36.43-12.22,33.35,33.35,0,0,0,11.91-34.81,33.33,33.33,0,0,0,36,12.08A33.19,33.19,0,0,0,687.19,219.27Z"/></clipPath></defs><title>Asset 1</title><g class="cls-2"><g id="Layer_2" data-name="Layer 2"><g id="Layer_10" data-name="Layer 10"><path class="cls-3" d="M227.47,119.3a4.28,4.28,0,0,0,2.75.66A4.57,4.57,0,0,0,233,118.6a5,5,0,0,0,1.39-3,5.25,5.25,0,0,0-.88-3.37,5.59,5.59,0,0,1,1.55,3.37,5.93,5.93,0,0,1-1,3.8,6.21,6.21,0,0,1-3.32,2.49,6.69,6.69,0,0,1-4.37-.19Z"/><path class="cls-3" d="M261.1,295.54c3.73-4.61,11-.91,9.77,4.88C262.24,339.49,224,364.64,183.43,373,110,388.22,31,346.63,12.7,258.2-4.41,175.44,47,104.12,124.51,88.1c34-7,79.92-.21,104.24,30.37a5.61,5.61,0,0,1-6.82,8.56c-15.18-7.23-30.54-8.48-48.1-4.85-46.84,9.69-76.1,58.33-64.09,116.43,12.83,62.07,55.4,93.92,106.13,83.43,20.61-4.26,34.68-13.44,45.23-26.5"/><path class="cls-4" d="M266.06,289.35c3.72-4.61,11-.92,9.76,4.87-8.62,39.08-46.84,64.22-87.44,72.62C114.92,382,35.94,340.43,17.66,252,.55,169.25,52,97.92,129.47,81.91c34-7,79.92-.21,104.24,30.36a5.61,5.61,0,0,1-6.82,8.57c-15.18-7.24-30.55-8.48-48.1-4.85-46.85,9.68-76.1,58.33-64.09,116.42,12.83,62.07,55.4,93.93,106.13,83.44,20.61-4.26,34.67-13.45,45.23-26.5"/><path class="cls-5" d="M266.06,289.35c-10.56,13-24.62,22.24-45.23,26.5-50.73,10.49-93.3-21.37-106.13-83.44-12-58.09,17.24-106.74,64.09-116.42,17.55-3.63,32.92-2.39,48.1,4.85"/><path class="cls-3" d="M233.71,112.27a81.61,81.61,0,0,0-7.52-7.7A87.79,87.79,0,0,0,217.68,98a97.93,97.93,0,0,0-9.24-5.38q-4.8-2.37-9.8-4.25a120,120,0,0,0-41.81-7.08c-3.55,0-7.09.17-10.62.45s-7,.74-10.52,1.33a144.83,144.83,0,0,0-20.55,5.2A147.21,147.21,0,0,0,77.34,107a140.53,140.53,0,0,0-30.53,28.84,134.17,134.17,0,0,0-20.23,36.65,138.57,138.57,0,0,0-8.16,41,152.53,152.53,0,0,0,4,41.75,155.88,155.88,0,0,0,14.73,39.3A139.43,139.43,0,0,0,62.43,328a134.85,134.85,0,0,0,34.15,24.23,139.08,139.08,0,0,0,19.49,7.92,142.25,142.25,0,0,0,20.48,5,147.59,147.59,0,0,0,83-10.55A113.65,113.65,0,0,0,254.69,331a80.06,80.06,0,0,0,21.13-36.73,76,76,0,0,1-7.07,20.41,84.7,84.7,0,0,1-5.65,9.3,93.09,93.09,0,0,1-6.81,8.52c-9.78,10.83-22,19.27-35.1,25.66A150.3,150.3,0,0,1,179.45,371a147.75,147.75,0,0,1-43.84.23A142.07,142.07,0,0,1,30.36,298.34a162.73,162.73,0,0,1-15.64-41.23,160.46,160.46,0,0,1-4.05-43.92A140.84,140.84,0,0,1,73.88,101.94,150.49,150.49,0,0,1,135,78.62c3.63-.5,7.28-.85,10.93-1.05s7.3-.23,10.95-.12a120.89,120.89,0,0,1,42.56,8.92,105.51,105.51,0,0,1,9.79,4.79,96.2,96.2,0,0,1,9.14,5.9,88.1,88.1,0,0,1,8.23,7.07A83.2,83.2,0,0,1,233.71,112.27Z"/><path class="cls-3" d="M275.82,294.22a5.57,5.57,0,0,0-.7-3.52,5.2,5.2,0,0,0-2.59-2.17,4.63,4.63,0,0,0-3.13-.11,4.29,4.29,0,0,0-2.25,1.81L265,288.47a6.77,6.77,0,0,1,4-2.11,6.34,6.34,0,0,1,4.19.92,6.25,6.25,0,0,1,2.59,3.12A5.83,5.83,0,0,1,275.82,294.22Z"/><g class="cls-6"><path class="cls-7" d="M114.7,232.41c-12-58.09,17.24-106.74,64.09-116.42,17.55-3.63,32.92-2.39,48.1,4.85-85.73-59-176.4,19.64-157.81,109.52,21.14,102.24,112.19,122,175.48,77.05l.36-.27a84.56,84.56,0,0,1-24.09,8.71C170.1,326.34,127.53,294.48,114.7,232.41Z"/><circle class="cls-7" cx="81.91" cy="263.59" r="20.32"/><circle class="cls-7" cx="115.54" cy="310.14" r="20.32"/><circle class="cls-7" cx="65.58" cy="213.45" r="20.32"/><circle class="cls-7" cx="45.38" cy="246.37" r="10.16"/><circle class="cls-7" cx="103.04" cy="184.96" r="10.16"/><circle class="cls-7" cx="71.28" cy="166.25" r="10.16"/><circle class="cls-7" cx="101.91" cy="229.68" r="10.16"/><circle class="cls-7" cx="120.91" cy="271.4" r="10.16"/><circle class="cls-7" cx="158.4" cy="304.02" r="10.16"/><circle class="cls-7" cx="125.27" cy="152.22" r="10.16"/></g><path class="cls-8" d="M266.06,289.35c3.72-4.61,11-.92,9.76,4.87-8.62,39.08-46.84,64.22-87.44,72.62C114.92,382,35.94,340.43,17.66,252,.55,169.25,52,97.92,129.47,81.91c34-7,79.92-.21,104.24,30.36a5.61,5.61,0,0,1-6.82,8.57c-15.18-7.24-30.55-8.48-48.1-4.85-46.85,9.68-76.1,58.33-64.09,116.42,12.83,62.07,55.4,93.93,106.13,83.44,20.61-4.26,34.67-13.45,45.23-26.5"/><path class="cls-9" d="M269.59,57.81c-3.06-7.63-9.29-15.93-12.49-19.92-.12-.82-.21-1.6-.26-2.31a25.78,25.78,0,0,1,0-4.33,1.51,1.51,0,0,0-.33-1.14,39.78,39.78,0,0,0-8.62-8.37c-2.48-6.1-5.55-5.24-6.77-2.91-3.72-6.66-7.45-8.2-10-8.3a6.55,6.55,0,0,0-5.86,3.25A8.75,8.75,0,0,0,224,18.29C209.9,7.7,182.07-1.38,151.34.18,123.17,1.61,81.86,12.39,45,55.58,21.08,79.87-4.09,120.76.56,133.89A5.94,5.94,0,0,0,5.77,138a7.13,7.13,0,0,0,1.79,0c5.46-.77,8.65-8.37,13.26-19.34C27.3,103.23,36,82.42,56.18,66c-.66,3.78-.88,9,2,11.94,2.14,2.23,5.49,2.74,10,1.5,6.45-1.79,11.83-5.23,17-8.55C92.76,66,100,61.42,109.6,62.55c5.39.63,8.67,0,10-2a3.79,3.79,0,0,0,.07-4.08,13,13,0,0,0-5.08-4.77c14.67-.38,25.51,2,36,4.3,12.09,2.66,23.62,5.2,39.46,3,3.23-.46,6.64-1.11,10.28-2l-.09-.36a26.79,26.79,0,0,0,6.36,3.52A51.59,51.59,0,0,1,214,63.91a60.21,60.21,0,0,1,12.47,10.56,146.67,146.67,0,0,1,10.21,13c1.59,2.18,3.65,5,7.14,5.88a5.84,5.84,0,0,0,2.79,0,5.18,5.18,0,0,0,2.53-1.46A7,7,0,0,0,250.84,87a11,11,0,0,0-.25-2.32c-.13-.71-.25-1.42-.4-2.12-.31-1.4-.65-2.79-1.06-4.16A49.91,49.91,0,0,0,247.18,73a16.29,16.29,0,0,0-.88-2l-.24-.54c-.52-1.11-1.09-2.19-1.7-3.25,6.82.3,11.71-1.58,14.12-3.61.1-.08.17-.16.26-.24,3.8,3.06,3.22,5.2,4.39,7.11C267.85,78.05,273.81,68.34,269.59,57.81Z"/><path class="cls-10" d="M240.52,75.8c2.22.51,6.66,3.34,7.11.1.72-5.14-9.29-14.81-5.52-13.81,6.44,1.7,11.56.46,15.52.14,0-.62,4.37-9.46,4.37-9.46a31.22,31.22,0,0,1-6.41-17,26.54,26.54,0,0,1,0-4.63c-8.87-11.18-15.09-10.68-15.09-10.68-8.27-15.73-17.83-5.68-13.63,2.11C204.62,1.36,114.68-23.29,46.42,56.66,17.13,86.43-8.73,134.74,6.25,136.49,19.32,138,19.7,91.25,59.05,62a29.87,29.87,0,0,0-1.39,9.52c10.32,6.38,19.6-9.75,44.61-17.65,6.86-2.17,5.81-4.86,10.33-9.95a303.43,303.43,0,0,1,84.47,3Z"/><path class="cls-11" d="M257.48,62.37a12.79,12.79,0,0,0,4.22-9.64,31.3,31.3,0,0,1-6.42-17c1.45,1.7,10.43,12.44,14.31,22.12,4.22,10.53-1.74,20.24-6.46,12.62-1.29-2.1-.44-4.48-5.65-8.06Z"/><path class="cls-11" d="M218.14,33.64A10.47,10.47,0,0,1,222,35.42a6.91,6.91,0,0,1,2.53,3.48,8.11,8.11,0,0,1,.06,4.37,16,16,0,0,1-1.62,4l-.29-1a40.51,40.51,0,0,1,7.29,4.43,51.07,51.07,0,0,1,6.4,5.63,52.21,52.21,0,0,1,9.73,14,54.27,54.27,0,0,1,3.08,8c.41,1.37.74,2.76,1.06,4.16.15.7.27,1.41.4,2.12a11,11,0,0,1,.25,2.33,7,7,0,0,1-1.76,4.91,5.18,5.18,0,0,1-2.54,1.46,6,6,0,0,1-2.79,0c-3.48-.9-5.53-3.69-7.13-5.87a146.33,146.33,0,0,0-10.2-13A60.68,60.68,0,0,0,214,63.91a52.14,52.14,0,0,0-7.28-3.75,23.83,23.83,0,0,1-7.39-4.4,9.43,9.43,0,0,1-2.47-3.67,8.54,8.54,0,0,1-.26-4.36,34.7,34.7,0,0,1,1.1-4.07,8.84,8.84,0,0,0,.41-2,3,3,0,0,0-.51-2,3.15,3.15,0,0,1,.72,2,9.28,9.28,0,0,1-.22,2.11c-.26,1.39-.64,2.73-.77,4.08a7.7,7.7,0,0,0,.51,3.88,8.29,8.29,0,0,0,2.39,3,24.35,24.35,0,0,0,7.15,3.68A47.74,47.74,0,0,1,215.11,62a58.14,58.14,0,0,1,13.34,10.58c2,2,3.81,4.2,5.57,6.41s3.39,4.5,5,6.72c.41.55.83,1.09,1.25,1.61a15,15,0,0,0,1.26,1.37,6.86,6.86,0,0,0,2.89,1.68,2.4,2.4,0,0,0,2.4-.55,4,4,0,0,0,.93-2.79,8.11,8.11,0,0,0-.19-1.82c-.12-.67-.23-1.33-.37-2-.28-1.33-.59-2.65-1-4a53.24,53.24,0,0,0-2.75-7.65,54.11,54.11,0,0,0-8.85-13.65,51.26,51.26,0,0,0-12.6-10.38l-.07,0a.65.65,0,0,1-.25-.88l0,0A14.24,14.24,0,0,0,223.53,43a7.3,7.3,0,0,0,.24-3.9,6.6,6.6,0,0,0-2.08-3.36A10.41,10.41,0,0,0,218.14,33.64Z"/><path class="cls-12" d="M105.79,13c8.29-2.18,25.81,17.31,0,37.7"/><path class="cls-13" d="M200,55.49c-39.09,9.59-51.84-8.76-94.26-4.79"/><path class="cls-11" d="M240.61,20.47c.42-3.62,5.09-6.72,8.17,3.88C248.78,24.35,243.37,21.55,240.61,20.47Z"/><path class="cls-11" d="M105.72,52.25A40.07,40.07,0,0,0,98,52.07a31.19,31.19,0,0,0-3.85.5,15.37,15.37,0,0,0-3.72,1.19A15.8,15.8,0,0,1,94,51.83a30.09,30.09,0,0,1,3.82-1.29,42.58,42.58,0,0,1,8-1.4Z"/><path class="cls-13" d="M226.56,22.49C204.32,1.33,114.38-23.33,46.12,56.63,16.83,86.4-9,134.71,6,136.46,19,138,19.4,91.22,58.75,62c0,0-6.67,20.23,8.93,15.91S92.8,59,109.78,61s6.34-10.06-4-10.31"/><path class="cls-13" d="M242.07,65.43c7.15.83,12.73-.8,15.41-3.06a12.79,12.79,0,0,0,4.22-9.64,31.3,31.3,0,0,1-6.42-17,26.94,26.94,0,0,1,0-4.62c-8.87-11.19-15.09-10.69-15.09-10.69-8.27-15.72-17.83-5.68-13.63,2.11"/><path class="cls-11" d="M162.32,1.61c-1,2.07-2.65,5.42-3.47,7.73s-1.51,4.7-2.09,7.11a48,48,0,0,0-1.34,14.9,49.23,49.23,0,0,1-1.55-15.29c.11-2.59.36-5.18.73-7.76A53.21,53.21,0,0,1,156,1.58Z"/><path class="cls-11" d="M178.78,3c-.92,2.17-2.46,5.92-3.22,8.26s-1.44,4.74-2,7.16a55.11,55.11,0,0,0-1.7,14.85A56.72,56.72,0,0,1,170.64,18q.18-3.86.64-7.69c.32-2.58.68-5.08,1.23-7.73Z"/><path class="cls-11" d="M195.63,7.69a42,42,0,0,0-3,3.88A38.87,38.87,0,0,0,190,15.85c-1.53,3-2.78,6.18-2.47,9.69-1.29-3.3-1-7.15-.28-10.66a43.06,43.06,0,0,1,1.45-5.26,46.11,46.11,0,0,1,2.09-5.16Z"/><path class="cls-11" d="M145.66,2.5a27.81,27.81,0,0,0-2.87,4,19.89,19.89,0,0,0-1.33,3.13,24.32,24.32,0,0,0-1.13,7.06,25.49,25.49,0,0,1-1.77-7.37,23,23,0,0,1,0-4,8.51,8.51,0,0,1,.75-3.05Z"/><path class="cls-11" d="M102.29,27.32A19.5,19.5,0,0,1,109,21.2a13.7,13.7,0,0,1,4.65-1.48,6.14,6.14,0,0,1,3.4,0l1.67,4.18a18.94,18.94,0,0,0-5-1.26,10.92,10.92,0,0,0-4,.37A18.62,18.62,0,0,0,102.29,27.32Z"/><path class="cls-11" d="M101.52,34A16.23,16.23,0,0,1,110,29.27a11.63,11.63,0,0,1,5.24.19,9.39,9.39,0,0,1,3.87,1.64l-1.51,3.58a11.87,11.87,0,0,0-3.32-2.48,9.38,9.38,0,0,0-4.12-1A15.41,15.41,0,0,0,101.52,34Z"/><path class="cls-11" d="M100.68,41.18a9.7,9.7,0,0,1,2.91-2.71,7.39,7.39,0,0,1,4.15-1A10,10,0,0,1,112,38.83c.63.38,1.21.82,1.81,1.25l1.59,1.44-3,2.41-1-1.47c-.36-.42-.72-.89-1.12-1.29a7.61,7.61,0,0,0-2.79-1.8C105.3,38.64,102.63,39.49,100.68,41.18Z"/><path class="cls-11" d="M10.89,104.3a10.77,10.77,0,0,0,4.93,4.62,13,13,0,0,0,3.13,1,16.56,16.56,0,0,0,3.22.22L21.72,114a19.86,19.86,0,0,1-3.7-1.32,15.12,15.12,0,0,1-3.27-2.11A11.68,11.68,0,0,1,10.89,104.3Z"/><path class="cls-11" d="M20.25,88.83a9.54,9.54,0,0,0,4,4.71,9.68,9.68,0,0,0,6.68.24l-1.9,3.69A5,5,0,0,1,26.46,97a7.59,7.59,0,0,1-3.34-2A10.49,10.49,0,0,1,20.25,88.83Z"/><path class="cls-11" d="M30.82,73.9a6.8,6.8,0,0,0,2,5.18A8.59,8.59,0,0,0,35,80.59a33.84,33.84,0,0,0,4,1L36,85a16.67,16.67,0,0,1-2.72-2.09,10.78,10.78,0,0,1-2-2.75A7.79,7.79,0,0,1,30.82,73.9Z"/><path class="cls-11" d="M41.89,61.09A10.76,10.76,0,0,0,44,66.91a5.23,5.23,0,0,0,2.19,1.56c.78.34,2.46,1.31,3.31,1.31l-2.49,2.51A4.46,4.46,0,0,1,44.71,71a7.7,7.7,0,0,1-2.35-3.06A11.66,11.66,0,0,1,41.89,61.09Z"/><path class="cls-11" d="M50.81,51.34a13.64,13.64,0,0,0,2.79,6.4,7,7,0,0,0,2.16,2.12,10.75,10.75,0,0,0,3.3,1.35l-.54,2.72a10.39,10.39,0,0,1-4-1.88A9.51,9.51,0,0,1,52,58.78,14.54,14.54,0,0,1,50.81,51.34Z"/><path class="cls-11" d="M236.53,33.49a73,73,0,0,1,8.7,1.85l-.77,6.59C241.75,38.51,240.94,36.31,236.53,33.49Z"/><g class="cls-14"><path class="cls-15" d="M273.79,287.74a6,6,0,0,0-.63-.46,6.34,6.34,0,0,0-4.19-.92,6.77,6.77,0,0,0-4,2.11h0c-11.15,13.78-25.26,22-44.42,26s-37.21,1.88-53-6a10.15,10.15,0,0,0-11.18-14.41,10.05,10.05,0,0,0-5.52,3.2A95,95,0,0,1,131,272.74a10,10,0,0,0-.11-3.4,10.16,10.16,0,0,0-5.14-6.89,145.54,145.54,0,0,1-9.65-30.32c-5.33-25.78-2.37-50.21,7.06-70a10,10,0,0,0,4.19,0,10.16,10.16,0,0,0,5.87-16.3,82.47,82.47,0,0,1,7.33-8.16,79.06,79.06,0,0,1,33.31-15.53c17.56-3.63,32.92-2.38,48.1,4.85a5.63,5.63,0,0,0,8.09-5c.22,0,.44-.08.66-.15l.28-.11a6.31,6.31,0,0,0,3.25-2.16,6.15,6.15,0,0,0,0-7.78A78.35,78.35,0,0,0,215,94.69q-2.79-1.86-5.72-3.53a105.51,105.51,0,0,0-9.79-4.79,120.89,120.89,0,0,0-42.56-8.92c-3.65-.11-7.3-.06-10.95.12s-7.3.55-10.93,1.05a150.49,150.49,0,0,0-61.12,23.32,140.9,140.9,0,0,0-54.33,68,139.54,139.54,0,0,0-7.38,28.5,149.69,149.69,0,0,0,.53,59.77C31,346.63,110,388.22,183.43,373c23.89-4.94,47-15.69,63.66-31.66a99.32,99.32,0,0,0,9.2-8.92,93.09,93.09,0,0,0,6.81-8.52c1.42-2,2.73-4.11,4-6.25a76.92,76.92,0,0,0,9.37-23.32A6.19,6.19,0,0,0,273.79,287.74Z"/><path class="cls-16" d="M8.12,137.86a4.75,4.75,0,0,0,.54-.14,3,3,0,0,0,.45-.18,5,5,0,0,0,.53-.23c.14-.07.28-.16.42-.24s.35-.21.51-.33l.4-.31c.17-.13.34-.27.5-.42l.37-.36c.17-.17.33-.34.49-.52s.24-.27.35-.41.33-.4.5-.61l.32-.45c.17-.23.34-.47.5-.73l.3-.46.51-.85c.1-.16.19-.31.28-.48s.36-.64.54-1l.24-.46c.2-.37.39-.75.58-1.15.07-.13.14-.26.2-.4.22-.45.44-.91.66-1.39l.12-.27c1.08-2.34,2.19-5,3.39-7.84C27.3,103.23,36,82.42,56.18,66c-.52,3-.76,6.86.56,9.81,0,.08.07.17.11.25l.09.18a7.37,7.37,0,0,0,1.19,1.69c2.13,2.24,5.49,2.75,10,1.51,6.45-1.79,11.83-5.22,17-8.55l2.43-1.54c5.67-3.55,11.29-6.62,18.05-6.91a24.47,24.47,0,0,1,4,.14c4.71.55,7.82.13,9.44-1.3a3.79,3.79,0,0,0,.6-.67,3.74,3.74,0,0,0,.18-3.81l-.11-.26h0a6.75,6.75,0,0,0-.37-.62,13.88,13.88,0,0,0-4.7-4.15h.25l2.3,0h.42c3.41,0,6.61.14,9.65.39h.14l2,.19.52.06c.61.06,1.22.13,1.82.21l.62.07,1.72.23.62.1c1.65.24,3.26.5,4.84.79l1.31.24.85.17,1.6.31.55.11c2.3.47,4.56,1,6.81,1.46l4.09.89,1.25.27,1.82.37L160,58l1.16.21,2,.35,1,.15c.93.15,1.87.28,2.81.4l1,.12q1.13.14,2.28.24l.89.09c1,.08,2,.15,3.06.2l.85,0c.84,0,1.69,0,2.56.06h1.07l1,0,1.6,0,1.05,0,1.61-.09,1.11-.09,1.64-.15,1.15-.12,1.68-.21.66-.08.66-.1,1.19-.19,1.54-.26,1.19-.22c.57-.1,1.14-.22,1.72-.34l1.1-.23c.85-.18,1.71-.38,2.58-.59l.3-.07h0l-.09-.36.07,0a20.81,20.81,0,0,0,3,1.91l.07,0c.52.27,1,.53,1.57.78l.11,0c.52.24,1.05.47,1.58.69A52.14,52.14,0,0,1,214,63.91a60.68,60.68,0,0,1,12.46,10.55,146.33,146.33,0,0,1,10.2,13c1.6,2.18,3.65,5,7.13,5.87a6,6,0,0,0,2.79,0h0l.09,0a4.31,4.31,0,0,0,.61-.19l.27-.13c.14-.07.27-.12.4-.2s.2-.14.31-.21l.3-.2a5.27,5.27,0,0,0,.55-.5A7,7,0,0,0,250.84,87a11,11,0,0,0-.25-2.32c-.13-.71-.25-1.42-.4-2.12-.31-1.4-.65-2.79-1.06-4.16a.19.19,0,0,0,0-.07c-.25-.84-.53-1.68-.82-2.51,0-.14-.1-.29-.16-.43-.29-.82-.61-1.63-.94-2.43v0h0a16.29,16.29,0,0,0-.88-2l-.24-.54h0c-.27-.56-.54-1.11-.83-1.65s-.56-1-.85-1.57h.28c.39,0,.79,0,1.17,0l.54,0,1.13,0,1-.08,1-.11.85-.13q.57-.09,1.11-.21l.58-.13c.42-.1.82-.21,1.2-.32l.48-.15c.39-.13.77-.27,1.13-.41l.34-.15c.38-.16.73-.32,1.06-.49l.21-.12c.35-.18.68-.38,1-.57l.09-.07a9.13,9.13,0,0,0,.88-.65c.1-.08.17-.16.26-.24h0c3.23,2.6,3.3,4.54,4,6.23l0,.1.13.28.05.11a2.71,2.71,0,0,0,.21.37v0c1.18,1.9,2.44,2.73,3.59,2.72h0a2.39,2.39,0,0,0,.7-.12,3.1,3.1,0,0,0,1.27-.79,3.22,3.22,0,0,0,.35-.38,6,6,0,0,0,.63-.93,10.21,10.21,0,0,0,.53-1.15A13.54,13.54,0,0,0,271,65.3a19.42,19.42,0,0,0-1.43-7.49h0c-.22-.55-.46-1.11-.71-1.66l-.24-.53c-.19-.39-.37-.78-.57-1.17-.09-.19-.19-.38-.29-.57-.21-.41-.42-.82-.64-1.22-.09-.15-.16-.31-.25-.46-.3-.55-.62-1.1-.94-1.64-.05-.09-.1-.18-.16-.27-.27-.46-.54-.91-.82-1.36l-.33-.52c-.23-.37-.47-.74-.71-1.11l-.32-.5-.81-1.2-.21-.32-1-1.44-.25-.35-.74-1-.33-.44-.65-.88c-.1-.13-.2-.27-.3-.39l-.73-1c-.05-.05-.09-.12-.14-.18l-.78-1-.28-.35c-.1-.12-.2-.24-.28-.35-.12-.82-.21-1.6-.26-2.31a25.78,25.78,0,0,1,0-4.33,1.6,1.6,0,0,0-.16-.89,1.45,1.45,0,0,0-.17-.26c-.1-.13-.2-.24-.31-.37l-.95-1.16-.56-.64-.68-.76-.6-.64-.6-.62-.61-.61-.53-.51-.64-.57c-.15-.14-.3-.28-.46-.41l-.65-.55-.36-.29-.7-.54-.16-.12-.81-.58c-.14-.34-.28-.65-.42-.95,0-.07-.07-.14-.1-.2-.14-.29-.28-.56-.42-.8v0c-.15-.25-.3-.47-.44-.68l-.1-.14a6.37,6.37,0,0,0-.43-.54v0a4.62,4.62,0,0,0-.45-.44l-.1-.09a5.15,5.15,0,0,0-.41-.32h0a3.09,3.09,0,0,0-.44-.23l-.09,0a3,3,0,0,0-.4-.12h0a2,2,0,0,0-.41,0h-.08a1.58,1.58,0,0,0-.38,0h0l-.38.11-.06,0a2.31,2.31,0,0,0-.35.18h0a2.62,2.62,0,0,0-.34.24l-.05,0q-.15.14-.3.3h0l-.27.35,0,.06a3,3,0,0,0-.23.38c-3.73-6.67-7.47-8.21-10-8.3-.15,0-.28,0-.42,0a6.55,6.55,0,0,0-5.43,3.24,8,8,0,0,0-.57,1.08s0,0,0,.06a8.53,8.53,0,0,0-.38,1.07,1,1,0,0,0,0,.17,8.45,8.45,0,0,0-.21,1,2.66,2.66,0,0,0,0,.28c0,.28-.06.57-.07.85l-.11-.08-.79-.57-.64-.46-.84-.57-.67-.45L220,15.6l-.71-.44c-.31-.19-.62-.38-.94-.56l-.73-.43-1-.56-.74-.4c-.35-.19-.7-.38-1.06-.56l-.74-.38L213,11.7l-.7-.33L211,10.78l-.34-.15c-1-.45-2-.89-3.08-1.33l-.55-.23-1.27-.49c-.3-.12-.59-.24-.9-.35s-.82-.31-1.23-.46l-1-.36L201.43,7l-1.07-.37-1.22-.39L198,5.87l-1.23-.37-1.2-.35-1.22-.34-1.27-.34-1.21-.31-1.36-.34-1.17-.28-1.51-.34L186.77,3l-2-.4-.67-.13q-1.32-.25-2.67-.48l-.84-.14-1.89-.29-1.07-.16L176,1.14,174.8,1,173.16.81,171.93.69,170.31.53l-1.26-.1L167.43.31,166.14.23,164.52.15,163.2.1l-1.62,0-1.35,0h-3l-1.58,0-1.43,0L153,.12l-1.73.07A139.72,139.72,0,0,0,134.36,2.1l-.14,0c-.88.15-1.76.32-2.65.49l-.43.09c-.83.16-1.66.34-2.49.53l-.65.13-2.34.56-.84.2-2.18.57-1,.27-2.07.6-1.2.35c-.62.18-1.24.39-1.87.58L115,7l-1.61.55-1.75.6-1.45.54-1.94.72-1.31.53c-.7.28-1.4.55-2.11.85-.37.15-.74.32-1.11.48l-2.34,1-.89.41-2.58,1.2-.66.33c-.94.46-1.89.93-2.84,1.42l-.37.19c-1,.54-2.09,1.1-3.14,1.68l-.2.11C75.51,26,59.88,38.12,45,55.58,21.08,79.87-4.09,120.76.56,133.89a6.9,6.9,0,0,0,.71,1.44,1.4,1.4,0,0,0,.1.16c.08.12.17.22.25.32s.18.24.28.35l.06.05A6,6,0,0,0,5.77,138a6.29,6.29,0,0,0,.86.05h0a6.54,6.54,0,0,0,.89-.06l.08,0A4.15,4.15,0,0,0,8.12,137.86Z"/></g><path class="cls-4" d="M245.57,257.44V130.58a16.33,16.33,0,0,1,16.34-16.34H276V243.81a13.62,13.62,0,0,1-13.62,13.63Z"/><path class="cls-4" d="M338.15,259.79c-24.72,0-47.47-13.14-47.47-45.31,0-28.25,18.83-43.95,42.57-43.95,26.87,0,45.11,19,45.11,49.83H319.12c1,9.81,7.07,17.85,19,17.85,13.14,0,21-2.94,28.25-9l3.41,5.49A13.68,13.68,0,0,1,364.45,254C356.43,258.21,348.38,259.79,338.15,259.79Zm-5.3-69.64c-8.63,0-12,6.08-13.53,14.13h27.85C346.39,195.64,340.9,190.15,332.85,190.15Z"/><path class="cls-4" d="M503.12,257.44V213.89c0-11.38-1.77-17.85-11-17.85-9.61,0-12.95,7.06-12.95,16.87v44.53h-30.4V213.89c0-11.38-1.77-17.85-11-17.85-9.61,0-12.94,7.06-12.94,16.87v44.53H394.44V190.77a17.88,17.88,0,0,1,17.88-17.88h12.53v8.83c5.69-8.24,13.34-11.19,23.34-11.19,13.34,0,21,5.5,25.89,13.93,5.89-7.65,14.32-13.93,28.45-13.93,22.75,0,31,15.89,31,36.1v32.93a17.88,17.88,0,0,1-17.88,17.88Z"/><path class="cls-4" d="M583.33,259.79a84.71,84.71,0,0,1-14.86-1.32,17.88,17.88,0,0,1-12.72-25.73l.91-1.79c6.86,4.12,14.12,7.26,22.16,7.26,6.48,0,9.81-2,9.81-4.71,0-4.51-5.3-6.67-12-9-11.37-4.32-26.87-9.42-26.87-28,0-16.87,14.52-25.9,35.31-25.9a78.5,78.5,0,0,1,8.42.42,17.86,17.86,0,0,1,14.22,25.22l-.47,1a44.08,44.08,0,0,0-21.58-5.49c-4.71,0-9.22.79-9.22,4.51,0,3,6.86,5.1,15.1,8.24C603.93,209,619,216.24,619,232.91,619,252.34,601.77,259.79,583.33,259.79Z"/><path class="cls-4" d="M791.05,257.44V213.89c0-11.38-2.74-17.85-12-17.85-8.83,0-13.93,6.47-13.93,16.87v44.53H734.75V190.77a17.88,17.88,0,0,1,17.88-17.88h12.53v8.83c5.49-7.46,14.32-11.19,24.33-11.19,22.75,0,32,15.89,32,36.1v32.93a17.89,17.89,0,0,1-17.88,17.88Z"/><path class="cls-4" d="M674.34,170.53c-24.32,0-45.5,19.43-45.5,44.53,0,25.7,20.79,44.73,45.7,44.73,24.33,0,45.51-19.81,45.51-44.92C720.05,189.17,699.06,170.53,674.34,170.53Zm12.85,48.74a33.29,33.29,0,0,0-.55,19.41,33.27,33.27,0,0,0-36.43-12.22,33.35,33.35,0,0,0,11.91-34.81,33.33,33.33,0,0,0,36,12.08A33.19,33.19,0,0,0,687.19,219.27Z"/><text class="cls-17" transform="translate(390.64 339.35)">NIGH<tspan class="cls-18" x="176.98" y="0">T</tspan><tspan x="210.46" y="0">S</tspan></text><g class="cls-19"><g class="cls-20"><path class="cls-21" d="M821.46,267.27H204.92S224,149,245.57,130.58c106.51,108.1,492.32,156.69,575.89,66.86C826.54,192,821.46,267.27,821.46,267.27Z"/></g></g></g></g></g></svg>